PathFileType	4	(X/Y/Z)	Walk1_0-155.trc
DataRate	CameraRate	NumFrames	NumMarkers	Units	OrigDataRate	OrigDataStartFrame	OrigNumFrames
30	30	8	22	m	30	96	155
Frame#	Time	Hip			RHip			RKnee			RAnkle			RBigToe			RSmallToe			RHeel			LHip			LKnee			LAnkle			LBigToe			LSmallToe			LHeel			Neck			Head			Nose			RShoulder			RElbow			RWrist			LShoulder			LElbow			LWrist		
		X1	Y1	Z1	X2	Y2	Z2	X3	Y3	Z3	X4	Y4	Z4	X5	Y5	Z5	X6	Y6	Z6	X7	Y7	Z7	X8	Y8	Z8	X9	Y9	Z9	X10	Y10	Z10	X11	Y11	Z11	X12	Y12	Z12	X13	Y13	Z13	X14	Y14	Z14	X15	Y15	Z15	X16	Y16	Z16	X17	Y17	Z17	X18	Y18	Z18	X19	Y19	Z19	X20	Y20	Z20	X21	Y21	Z21	X22	Y22	Z22
97	3.2333333333333334	0.12916117265614457	0.9096022003168968	0.34471530760481095	0.13784025511359105	0.8826211463911036	0.45712512818746753	0.3140233524313141	0.5707962860487689	0.46775967829184856	-0.01304047190306253	0.3079461683688792	0.42881097901645854	0.033954534648874345	0.08340688941222667	0.4453030027959857	-0.018317135227563307	0.11765349315920048	0.48082955057848753	-0.10582486905220799	0.28433323289266044	0.40100557351609467	0.12735071202879986	0.888320808129612	0.23057665540827643	0.15766081966148596	0.5071120292397118	0.2424774581803393	0.11726172667521062	0.11728379698626085	0.2804999781143146	0.3207144806205546	0.0473125214515912	0.2920651826130414	0.2861157413543639	0.03733636633987585	0.23125978338490355	0.05628724069722462	0.03699019479302529	0.292491916892964	0.06112369777924955	1.5968341413044398	0.32634499727736666	0.11979304230807944	1.836076686072454	0.32414129434498934	0.24810699206772752	1.693685839310498	0.3175780118169957	0.021043629981239716	1.4667415208802248	0.5138059520535883	0.06634558587641516	1.160876159457728	0.5615314464883995	0.10613421718227703	0.9076154965477495	0.6106526906985472	0.07049407301681265	1.4654195655535767	0.16306132768516227	0.14520580858284293	1.165621833595041	0.09401080744659374	0.2521378830628775	0.9182354299086248	0.08896207601816127
98	3.2666666666666666	0.16266742323537864	0.9148058836276559	0.34041472877258255	0.1674404894609075	0.8917056591049494	0.45828183298356007	0.37418582159999214	0.5867055096964662	0.46646850138016727	0.09010392046011677	0.2729430010689027	0.43032344863550426	0.18829299017518594	0.08579666070195789	0.45900755746857025	0.1450809783955673	0.10710164619270968	0.48369160190000254	0.004850952536041493	0.22356127090102282	0.4018223912456075	0.1538719164183888	0.8933356846059944	0.22532219740840098	0.169522080298061	0.5062506619468649	0.24429862699428045	0.11146692598790404	0.11441768882683113	0.2827723079753412	0.3241260736579515	0.052927116641060305	0.29934363732429164	0.2783805786541782	0.039017981601173715	0.24166898660103447	0.06654965129760272	0.031079699085122738	0.27581748661584976	0.1024093395334667	1.601206163419885	0.3292534522636406	0.1592117373271076	1.8433414376240678	0.3392508473838465	0.2579415555689496	1.6988973767037014	0.339002119191336	0.059810842672354085	1.4745708906039965	0.5178836660669974	0.08480727981225714	1.1646376346129137	0.5626482501114863	0.10521646898997039	0.9142090148840808	0.6159827873091605	0.11075361833067751	1.476841049345245	0.16267205801405565	0.19357222706453267	1.1744051204066461	0.091024663567887	0.2897184401387671	0.9349695788856781	0.06205939613873956
99	3.3	0.1933991252424635	0.9143135689993487	0.34027957956483734	0.20401407886843773	0.8926577546505146	0.45690302260042365	0.37245899807375904	0.585598162278335	0.45611017057652964	0.21353777496080478	0.24006275762148502	0.4382300610771767	0.3814491434925748	0.11371249292419805	0.46339229875789456	0.3269504197406469	0.09410496561203452	0.4852861642371309	0.1480807378594756	0.17456293632118464	0.42086700370206254	0.1811303480779975	0.8891548229753332	0.22560161467959697	0.1626357114521605	0.5092570344727414	0.2590267921225818	0.11568097231222309	0.11505267305807795	0.28308036117034413	0.3321859502780736	0.055537770699405464	0.28946807317257156	0.27534351101689564	0.0416321215826474	0.23414915439523293	0.0752935226815501	0.05064712960007636	0.27049024801724836	0.14269671115369084	1.6008542082229904	0.33004018820966136	0.24497926713112533	1.8471104147681603	0.3778081551038425	0.3594480890705364	1.6845584331031365	0.31093916002583755	0.0970126493644802	1.4760654182323665	0.5203095822940738	0.09236446763740759	1.1707737173114428	0.5730480518992218	0.12322285476608696	0.9147036987634738	0.6186246717667802	0.1576103509242452	1.4789444145035746	0.16549708252806047	0.24068239837997427	1.1777585478043635	0.0839553942387587	0.3938484098048724	0.9346153248187489	0.09641936954311549
100	3.3333333333333335	0.2346597882835126	0.9138486898512359	0.3436213229190442	0.24624336444082007	0.8898025547273724	0.46218601951080523	0.46263024332590136	0.5853031028687713	0.4534907856477967	0.30551100085202565	0.19337383769095243	0.42772503947132834	0.5149694013425223	0.07930704319026777	0.4408214580796199	0.46020937506195186	0.060888315242215586	0.480102573029092	0.24427312230744977	0.11321485717058707	0.4149116285108144	0.21471300986298178	0.88344835872455	0.23222521813151067	0.17941761149629612	0.512256265915361	0.25758089186852606	0.1325501889577507	0.12019889094634768	0.2780415907227315	0.31779621547021925	0.03092547612128052	0.3025363136730523	0.30174775952007293	0.04148932504449175	0.23408822885172229	0.08516130195679271	0.034329064746313386	0.2849038913385185	0.18312916198277504	1.6014942669928707	0.33191534724832145	0.2616018265455981	1.8495013884684939	0.3580993351947468	0.39978044385775874	1.679616714505331	0.3131698289878743	0.1303778168804481	1.4743503006556757	0.5192873998052977	0.11528335335764538	1.172332075077982	0.5753889304343905	0.13810366819428604	0.922076685052452	0.6217968572522576	0.20089328437785114	1.481733897740801	0.16993642457908892	0.2901107306192842	1.1818444855277304	0.08263987270579154	0.45613552408449753	0.9637531792159931	0.09451295023324474
101	3.3666666666666667	0.28138014837603353	0.9102838210884937	0.35160384995653926	0.2933236652464063	0.8869459764956962	0.46137686118320853	0.49709880033409065	0.5730198852183057	0.44513916248241897	0.4439352524317828	0.16762802486111072	0.44340354450166986	0.6446828013264723	0.07973540685700399	0.4489480083556909	0.6115054281542387	0.07707397161754523	0.49777438657994383	0.39717898523514905	0.08039938176244694	0.43329337552531183	0.25030865998395685	0.887563425814461	0.23132216932721442	0.20905727700434976	0.5012170369759926	0.250498465447222	0.13037754531150128	0.12482569883868151	0.2863235242730375	0.2955149464747256	0.044676223386982315	0.30469847903324754	0.28814446709582675	0.039177112845962016	0.21584350081585818	0.07608373444862895	0.03489916512262737	0.28907106686493245	0.23126580787943127	1.5994035818860344	0.33318366614575934	0.30981908649792844	1.8501645246275045	0.35976049237282426	0.448482406894279	1.6765489021730922	0.3121173890194613	0.17942497056052512	1.4704516701763817	0.5237766180828303	0.1433763390945366	1.1722208353655388	0.5777970646630551	0.15335818354538752	0.9174593251547046	0.6269595567130309	0.24968485124122378	1.4866568232056625	0.17507408095693489	0.3332819879301641	1.189062238778492	0.07899490971950125	0.5173570771104089	0.9814036919990557	0.10180765991058453
102	3.4	0.3202976434069345	0.9069998630705182	0.3524373566127391	0.3401682567097663	0.8733068820506343	0.4613050461902962	0.5166030974370073	0.5101873561879285	0.4700560090056267	0.5596376091640767	0.1645472302483737	0.4567489523424069	0.7500672008405415	0.10878810426404976	0.45854752793076736	0.7212024091833716	0.09327742442088983	0.5040009339727678	0.5294552699136509	0.08369387298282174	0.4514782744925636	0.2934810119712371	0.8764621512853129	0.24112616848978427	0.22443101901947365	0.496413038628058	0.2560770730581815	0.1310090515507993	0.1228927920590585	0.2834358132836361	0.3363733043984248	0.046358992043049115	0.2725757374494372	0.30248804292500725	0.03656525834477829	0.22131819250144608	0.07100367367915632	0.03756888923183068	0.2868802639551868	0.2731448087232029	1.5961055931015609	0.3337312740598433	0.355490358710575	1.843689623997487	0.3678691135516662	0.49834709582015385	1.668396578859741	0.314997770977358	0.21993445677441745	1.465874927678592	0.5214709048071069	0.17339214136429265	1.1714490139687026	0.5764476090821438	0.17442720630534403	0.9166814611604338	0.6280135275525425	0.2962819879119311	1.4833131503893124	0.181333011954436	0.37995009859782036	1.1932698912174564	0.08331431882483006	0.5773506505976762	0.991534095855987	0.11172810807456629
103	3.433333333333333	0.3592303863718702	0.8989826606564355	0.354803341734767	0.37563075662563156	0.8713624768324821	0.4661199051885088	0.517532434072798	0.541291153147805	0.44983297631848956	0.6558405275579583	0.1641836162985108	0.46458414551179666	0.8352845323876849	0.12725868592060466	0.4638497001252819	0.8082809580518052	0.10549516653435137	0.5018588578859556	0.6370139938457566	0.08434609638611687	0.4639497789913446	0.3329596651895122	0.8728539398080986	0.24691000342109617	0.25318556348164056	0.4947912020117076	0.2605073029157	0.1337971030418128	0.12449319329882727	0.2842684627236005	0.3403205616555345	0.040555935864844884	0.290835450599561	0.2897682614027378	0.050211004420618974	0.2569295416773128	0.06856238994738084	0.0431108725004085	0.28726405254534276	0.31658538732501584	1.5874239338860825	0.3378290086971815	0.40008191679923466	1.8383246453173194	0.372804319240097	0.5346048116975921	1.662340227892529	0.32287881069966645	0.2611617943360382	1.45859218345476	0.5239276002011249	0.20446770633916547	1.1664974943081945	0.5778008902246676	0.19902061226292114	0.9101969120007664	0.633680984830766	0.34213297770681567	1.475633203360842	0.18395495216332636	0.4243835284377077	1.191621047973695	0.08814752429412036	0.6309904777220162	0.9979537485666651	0.11383311079740456
104	3.466666666666667	0.3996720560155708	0.8933073323171516	0.3635247944935489	0.4137840947334366	0.8711237787605421	0.47116661853740743	0.5561960634764176	0.5301998756734344	0.45484438857589954	0.7240192051538047	0.15740394079342349	0.4591423001394538	0.9057543146591327	0.15466141059676822	0.46916957259855074	0.8844552285495002	0.12296464750808073	0.5015499945034632	0.7053845489532751	0.08001999338556035	0.4548941754563918	0.3710181425772249	0.870535356955917	0.24816956709110813	0.26754117817494616	0.5086616759822663	0.2702956690773095	0.12874867396591785	0.11799739030396297	0.2921717873830976	0.334797569590973	0.04105576518770773	0.28931773103090136	0.2848469486018657	0.039041761390334925	0.22095673819728026	0.06412453067097125	0.043446024262216595	0.28996202640512886	0.3633498028244623	1.579454785321288	0.343172059552359	0.4363488862902089	1.8335839792905422	0.3697736151355619	0.5788009083847963	1.6579331409637428	0.3254584317015179	0.3132941928236264	1.4515891266994132	0.529400550914723	0.24503925642295926	1.1610383147543841	0.5808624351561963	0.23150417581272237	0.9026945074680506	0.6394061975445425	0.3840385168016363	1.4697447465278548	0.18564287537735064	0.4646177051649097	1.1872603481232982	0.09051538356039925	0.6741635560821791	0.9988723185789322	0.1189605543292637
